<?xml version="1.0" encoding="UTF-8"?>
<svg version="1.1" xmlns="http://www.w3.org/2000/svg" width="1024" height="1024">
<path d="M0 0 C337.92 0 675.84 0 1024 0 C1024 337.92 1024 675.84 1024 1024 C686.08 1024 348.16 1024 0 1024 C0 686.08 0 348.16 0 0 Z " fill="#0E0F2A" transform="translate(0,0)"/>
<path d="M0 0 C26.90746482 24.90984326 43.83384255 55.5867708 52.625 91.125 C52.81924561 91.89239502 53.01349121 92.65979004 53.21362305 93.45043945 C57.25010368 110.51257631 58.47286424 127.46902659 58.33618164 144.95776367 C58.31244206 148.19540178 58.31567152 151.4322176 58.32226562 154.66992188 C58.30588685 166.91838706 57.6946953 178.86942583 56 191 C55.80506958 192.49285522 55.80506958 192.49285522 55.60620117 194.01586914 C50.7678728 229.0191248 36.08378105 259.83901321 14 287 C15.43605284 290.28177439 17.20128184 292.446821 19.73318481 294.96696472 C20.51003632 295.74512039 21.28688782 296.52327606 22.08728027 297.32501221 C22.94035767 298.169328 23.79343506 299.0136438 24.67236328 299.88354492 C25.56998383 300.77985123 26.46760437 301.67615753 27.39242554 302.59962463 C29.34187769 304.54614701 31.29444019 306.48947487 33.24948502 308.43037987 C36.33795002 311.49657376 39.41930656 314.56984493 42.49972534 317.64411926 C47.36911192 322.50213182 52.24315092 327.3554456 57.11923683 332.20673305 C65.86173252 340.90485128 74.59859296 349.60862147 83.33030879 358.31756097 C86.39688805 361.37570989 89.46625301 364.43102783 92.53785348 367.48413312 C93.98512957 368.92335199 95.43129799 370.36367283 96.87698364 371.80448914 C98.64399776 373.5654429 100.41284391 375.32456081 102.18377686 377.08157349 C102.95498871 377.85126968 103.72620056 378.62096588 104.52078247 379.41398621 C105.53454547 380.42247006 105.53454547 380.42247006 106.56878853 381.45132732 C108 383 108 383 108 384 C96.43921484 384.58501433 84.88206029 385.02620179 73.3093729 385.2953043 C67.93173011 385.42463535 62.56435393 385.59912898 57.19262695 385.88598633 C18.21444925 387.91460009 18.21444925 387.91460009 5.58300304 376.74410534 C0.05649085 371.4355482 -4.97342656 365.52864592 -9 359 C-9 358.34 -9 357.68 -9 357 C-9.8353125 356.690625 -9.8353125 356.690625 -10.6875 356.375 C-13.31209578 354.81442954 -14.84397921 352.87547006 -16.72265625 350.5 C-18.06924461 348.81950216 -18.06924461 348.81950216 -20.375 347.125 C-22.60294025 345.32142932 -24.19793531 343.67907784 -26.02841187 341.50993347 C-30.5063686 336.34007507 -35.32668147 331.54106992 -40.17041016 326.71606445 C-41.1783106 325.70844672 -42.18598964 324.70060749 -43.19346619 323.69256592 C-45.90800936 320.97773782 -48.62560813 318.26598778 -51.34379625 315.55480981 C-54.19799593 312.70690301 -57.04932419 309.85612416 -59.90097046 307.00566101 C-65.29725112 301.61247939 -70.69607276 296.22184897 -76.09583127 290.83214968 C-82.22658168 284.71257459 -88.3544971 278.59016404 -94.48216939 272.467507 C-104.95896252 261.99938503 -115.43787532 251.53338903 -125.91914368 241.06974792 C-133.09783548 233.90307161 -133.09783548 233.90307161 -136.01515198 230.98484802 C-137.70878232 229.29121768 -139.40831238 227.60407252 -141.11328125 225.921875 C-142.17970987 224.86460589 -143.2461159 223.80731401 -144.3125 222.75 C-144.86228516 222.20859375 -145.41207031 221.6671875 -145.97851562 221.109375 C-147.3379533 219.75838103 -148.67152124 218.3814484 -150 217 C-150 216.67 -150 216.34 -150 216 C-138.02133257 215.62735664 -126.04406823 215.34404401 -114.0607605 215.17100525 C-108.49446259 215.08789925 -102.93216135 214.97544205 -97.36816406 214.79296875 C-91.98609995 214.61759054 -86.60784763 214.52315338 -81.22314453 214.48196411 C-79.18151858 214.452663 -77.14007446 214.39543796 -75.10009766 214.30831909 C-66.06072788 213.93805662 -58.30734121 213.63715014 -51.06933594 219.66845703 C-47.02869261 223.48773027 -43.40150034 227.60539308 -40 232 C-21.76062041 209.64887995 -18.77171339 177.70775274 -18.75 150 C-18.74932526 149.22309814 -18.74865051 148.44619629 -18.74795532 147.64575195 C-18.76421721 135.84114147 -19.29057702 124.53289022 -22 113 C-22.17160645 112.22350098 -22.34321289 111.44700195 -22.52001953 110.64697266 C-26.93033265 90.95230364 -34.66915521 73.34485731 -48 58 C-48.71671875 57.175 -49.4334375 56.35 -50.171875 55.5 C-60.59436565 44.30806374 -73.90005667 37.45566435 -88 32 C-88.77859375 31.66226563 -89.5571875 31.32453125 -90.359375 30.9765625 C-103.91803997 25.96226332 -118.22868558 25.61076828 -132.5 25.625 C-133.26877472 25.62336853 -134.03754944 25.62173706 -134.82962036 25.62005615 C-166.19579024 25.62758092 -193.64617347 34.64617347 -216 57 C-216.66644531 57.66644531 -217.33289063 58.33289063 -218.01953125 59.01953125 C-243.01402059 85.81949161 -247.34894168 124.42279897 -246.16210938 159.33544922 C-245.81038143 167.28640776 -245.14811463 175.12539155 -244 183 C-243.86319824 184.03084717 -243.86319824 184.03084717 -243.72363281 185.08251953 C-240.31783162 210.12412094 -227.47990323 236.57620691 -207.171875 252.171875 C-189.0681887 265.20303084 -167.72942557 273.91940678 -145.23046875 274.12109375 C-143.42980957 274.14381348 -143.42980957 274.14381348 -141.59277344 274.16699219 C-139.19620572 274.18043807 -136.79910045 274.15761662 -134.40332031 274.09472656 C-126.21390589 274.12078487 -126.21390589 274.12078487 -123.06787109 276.39941406 C-121.45703125 278.27734375 -121.45703125 278.27734375 -119.87133789 280.47094727 C-117.5702654 283.58077244 -114.9130842 286.24661668 -112.171875 288.9609375 C-111.11455652 290.01950447 -110.05726517 291.07809854 -109 292.13671875 C-108.46632813 292.6682959 -107.93265625 293.19987305 -107.3828125 293.74755859 C-105.73579365 295.38915962 -104.09426198 297.03611468 -102.453125 298.68359375 C-101.40136262 299.73469625 -100.34929058 300.78548901 -99.296875 301.8359375 C-98.80934753 302.3254892 -98.32182007 302.81504089 -97.81951904 303.31942749 C-95.63030288 305.49356588 -93.58014988 307.27990008 -91 309 C-91 309.66 -91 310.32 -91 311 C-90.01 311.33 -89.02 311.66 -88 312 C-86.47241211 313.54882812 -86.47241211 313.54882812 -84.83984375 315.53125 C-80.96949684 320.09298484 -76.81584248 324.29724622 -72.5625 328.5 C-71.83095703 329.22703125 -71.09941406 329.9540625 -70.34570312 330.703125 C-68.56610176 332.47109499 -66.78419082 334.23666378 -65 336 C-66 338 -66 338 -68.125 338.74609375 C-89.34458865 343.84917417 -110.55432474 346.42492202 -132.375 346.375 C-133.66994888 346.37468277 -133.66994888 346.37468277 -134.99105835 346.37435913 C-187.62211345 346.24667407 -236.0985349 328.84727837 -274.1875 292.125 C-310.96736669 254.33502388 -323.13759848 202.09881719 -323.24023438 150.92626953 C-323.24989127 148.03257954 -323.28100051 145.13961683 -323.3125 142.24609375 C-323.38675143 128.93410466 -322.13763411 116.13109335 -320 103 C-319.88928665 102.29513458 -319.7785733 101.59026917 -319.664505 100.86404419 C-314.26081777 66.55655879 -297.40570719 34.36253613 -274 9 C-273.25363281 8.18273437 -272.50726563 7.36546875 -271.73828125 6.5234375 C-211.48431435 -56.51490864 -101.38450622 -59.68092886 0 0 Z " fill="#FDFDFD" transform="translate(518,341)"/>
<path d="M0 0 C4.14237991 1.90070301 6.96190719 4.70775798 10.12109375 7.92578125 C10.7028688 8.5103862 11.28464386 9.09499115 11.88404846 9.6973114 C13.73995842 11.56438702 15.58880352 13.43828434 17.4375 15.3125 C18.67727058 16.5623092 19.91750025 17.81166318 21.15820312 19.06054688 C23.90994917 21.83188093 26.65724867 24.60753695 29.40061951 27.38716125 C29.92841507 27.91939804 30.45621063 28.45163483 31 29 C31.77330658 29.78419312 32.54661316 30.56838623 33.34335327 31.37634277 C35.9949431 33.99500589 38.72126026 36.49769769 41.48901367 38.99291992 C47.65163231 44.59929001 53.55713986 50.43908036 59.42577553 56.35061073 C61.22822836 58.16610792 63.03403283 59.97821581 64.84062195 61.78959656 C68.66745407 65.62770887 72.49027459 69.46980075 76.3125 73.3125 C80.76609701 77.78983314 85.22139642 82.26544624 89.68092918 86.7368679 C91.44825481 88.5106095 93.21251175 90.2873633 94.97663879 92.06428528 C100.15062125 97.26161189 105.3498094 102.31453398 111 107 C112.00926128 107.99065215 113.01168893 108.98844613 114 110 C112.45615972 113.68994791 110.21186057 116.0239451 107.375 118.8125 C106.14910156 120.02873047 106.14910156 120.02873047 104.8984375 121.26953125 C102.76940623 123.275182 100.62825478 125.18801249 98.40917969 127.0874176 C93.58496003 131.30026167 89.07233644 135.79482192 84.5546875 140.33178711 C83.19231209 141.69394348 83.19231209 141.69394348 81.80241394 143.08361816 C79.33584729 145.54990036 76.87235494 148.01923206 74.4094429 150.48916316 C71.82612224 153.07877643 69.23992961 155.66551843 66.65405273 158.25257874 C61.76844431 163.14128317 56.88538847 168.03252887 52.00326633 172.92471462 C46.44048746 178.49870862 40.87483575 184.06983035 35.30895233 189.64072406 C23.86945691 201.09064466 12.43353739 212.54412982 1 224 C-6.38169635 217.74542083 -6.38169635 217.74542083 -9.54858398 214.56494141 C-10.14867783 213.96477203 -10.74877167 213.36460266 -11.36705017 212.74624634 C-12.29717674 211.80837784 -12.29717674 211.80837784 -13.24609375 210.8515625 C-14.23005882 209.86547501 -14.23005882 209.86547501 -15.23390198 208.85946655 C-17.30415268 206.78367138 -19.37087651 204.70440573 -21.4375 202.625 C-22.85067862 201.2067992 -24.26408794 199.78882824 -25.67773438 198.37109375 C-29.12116065 194.91671223 -32.56143099 191.4592163 -36 188 C-31.20180862 182.21766359 -26.03648177 176.92130815 -20.69921875 171.63671875 C-19.82223831 170.76352493 -18.94525787 169.89033112 -18.04170227 168.99067688 C-14.78471353 165.74791357 -11.52314108 162.50978525 -8.26141357 159.27178955 C-5.05046284 156.08365734 -1.84323299 152.89181199 1.36328125 149.69921875 C2.21424881 148.85654953 3.06521637 148.01388031 3.94197083 147.14567566 C4.72335922 146.36759048 5.50474762 145.58950531 6.30981445 144.7878418 C7.00009232 144.10280075 7.69037018 143.4177597 8.40156555 142.71195984 C10.0797608 141.07675116 10.0797608 141.07675116 11 139 C-32.89 139 -76.78 139 -122 139 C-117.73424797 131.89041329 -113.43406409 125.20170205 -108.44140625 118.63867188 C-105.59779453 114.93926904 -105.59779453 114.93926904 -105.3828125 110.515625 C-106.18332031 109.27039063 -106.18332031 109.27039063 -107 108 C-107.34901367 107.41065674 -107.69802734 106.82131348 -108.05761719 106.21411133 C-109.29256691 104.13796028 -110.57725452 102.09992257 -111.875 100.0625 C-112.30941406 99.37220703 -112.74382813 98.68191406 -113.19140625 97.97070312 C-115.18318896 94.81555183 -117.20346416 91.69378771 -119.3203125 88.62109375 C-121 86 -121 86 -121 84 C-77.11 84 -33.22 84 12 84 C12 83.34 12 82.68 12 82 C11.1461673 81.63414291 11.1461673 81.63414291 10.27508545 81.26089478 C7.58324641 79.76902739 5.76909446 78.00891266 3.59863281 75.82568359 C2.7380426 74.96494232 1.87745239 74.10420105 0.99078369 73.21737671 C0.07085632 72.28712677 -0.84907104 71.35687683 -1.796875 70.3984375 C-2.75479097 69.43678914 -3.71315114 68.47558306 -4.67193604 67.51480103 C-7.18835125 64.99076718 -9.69870107 62.46078409 -12.20782471 59.92950439 C-14.77162441 57.3452081 -17.34112918 54.76659801 -19.91015625 52.1875 C-24.94569457 47.13054303 -29.9748456 42.06727744 -35 37 C-33.63886987 33.95418514 -32.10669904 31.86160974 -29.74365234 29.51660156 C-28.75285172 28.52602753 -28.75285172 28.52602753 -27.74203491 27.51544189 C-27.03052277 26.81425232 -26.31901062 26.11306274 -25.5859375 25.390625 C-24.49147812 24.30041046 -24.49147812 24.30041046 -23.37490845 23.18817139 C-21.0462612 20.87070802 -18.71075174 18.5603005 -16.375 16.25 C-14.79381347 14.67884556 -13.21307875 13.10723629 -11.6328125 11.53515625 C-7.7604331 7.68481347 -3.88239829 3.84023883 0 0 Z " fill="#FDFDFD" transform="translate(734,387)"/>
<path d="M0 0 C5.75162532 4.40417297 9.34643255 10.42967313 10.49609375 17.58984375 C10.73774097 23.34104766 9.71503983 27.67160334 7.0234375 32.74609375 C5.907992 34.82921132 5.907992 34.82921132 5.76953125 37.3984375 C5.05078125 39.81640625 5.05078125 39.81640625 2.546875 41.3984375 C1.53753906 41.80449219 0.52820313 42.21054687 -0.51171875 42.62890625 C-1.52363281 43.04785156 -2.53554688 43.46679688 -3.578125 43.8984375 C-4.36058594 44.20136719 -5.14304687 44.50429688 -5.94921875 44.81640625 C-2.25516443 47.27910913 -0.31644803 47.04626042 4.05078125 46.81640625 C6.3611504 46.3878563 6.3611504 46.3878563 8.05078125 45.81640625 C9.61328125 47.62890625 9.61328125 47.62890625 11.05078125 49.81640625 C10.05078125 52.81640625 10.05078125 52.81640625 8.05078125 54.00390625 C2.89990495 55.39893525 -1.5417975 56.00326867 -6.4609375 53.578125 C-10.05521705 51.24560542 -12.55179998 49.41253441 -14.94921875 45.81640625 C-17.10131935 45.19914377 -17.10131935 45.19914377 -19.57421875 44.94140625 C-25.69060073 43.84698869 -30.53893032 41.84613267 -34.484375 36.88671875 C-35.76481621 34.90819443 -36.88369722 32.91725234 -37.94921875 30.81640625 C-38.59890625 29.60984375 -38.59890625 29.60984375 -39.26171875 28.37890625 C-41.15490088 21.32250012 -40.13917143 14.33914532 -36.94921875 7.81640625 C-28.45056959 -4.78503905 -12.95123508 -7.86417681 0 0 Z " fill="#F4F3F5" transform="translate(371.94921875,898.18359375)"/>
<path d="M0 0 C4.20368929 2.75441736 6.46984076 6.60092852 8.05078125 11.34375 C8.44102316 17.1973786 8.0478409 21.12306544 5.05078125 26.34375 C1.26043306 30.32227151 -2.01464748 33.08543997 -7.65625 33.58203125 C-13.93627994 33.73212002 -18.11228595 33.81791284 -22.94921875 29.34375 C-27.43174067 24.48768459 -29.47333089 20.18004019 -29.2578125 13.4609375 C-28.58043872 8.81363892 -26.69985186 4.95114949 -23.23046875 1.765625 C-15.70257745 -3.78459994 -8.32680181 -4.02677808 0 0 Z " fill="#F2F2F4" transform="translate(457.94921875,909.65625)"/>
<path d="M0 0 C4.82480841 2.38736195 7.51178663 5.41972653 9.3125 10.5 C10.27484103 16.55433971 9.6350841 21.23924185 6.3125 26.5 C5.16323734 25.54578192 4.01819459 24.58647955 2.875 23.625 C2.23691406 23.09132813 1.59882813 22.55765625 0.94140625 22.0078125 C-0.6875 20.5 -0.6875 20.5 -1.6875 18.5 C-3.6675 19.16 -5.6475 19.82 -7.6875 20.5 C-5.0475 23.8 -2.4075 27.1 0.3125 30.5 C-0.0175 31.16 -0.3475 31.82 -0.6875 32.5 C-6.21038559 34.34096186 -11.67766369 34.41011456 -17 32 C-21.85040337 27.48799687 -24.94717187 23.28752704 -25.25 16.5 C-24.89708756 10.60907701 -23.35516586 5.92568732 -18.921875 1.89453125 C-12.64364991 -2.51752851 -7.02465564 -2.59354008 0 0 Z " fill="#110E1E" transform="translate(364.6875,902.5)"/>
<path d="M0 0 C4.84916362 2.64585432 8.0999607 6.04988209 9.875 11.375 C9.875 14.015 9.875 16.655 9.875 19.375 C0.965 19.375 -7.945 19.375 -17.125 19.375 C-13.79166667 25.20833333 -13.79166667 25.20833333 -10.125 27.375 C-6.15283084 27.74279344 -3.89017098 27.83766152 -0.4375 25.75 C1.875 24.375 1.875 24.375 4.125 24.9375 C6.23930894 26.67425377 6.34069517 27.76224937 6.875 30.375 C0.2487475 34.45269384 -5.37440193 35.4557172 -13.125 34.375 C-18.38979053 31.83661885 -21.61400748 28.17033617 -24.375 23.0625 C-26.12726061 16.78356614 -25.57683177 11.84207335 -22.46875 6.203125 C-17.08740451 -1.11800782 -8.37904421 -3.81729613 0 0 Z " fill="#F2F2F5" transform="translate(522.125,908.625)"/>
<path d="M0 0 C2.17435929 1.44728647 4.192933 2.93706925 6.1640625 4.6484375 C5.5040625 6.2984375 4.8440625 7.9484375 4.1640625 9.6484375 C1.46704416 9.10903383 -0.57483949 8.29319616 -3.0859375 7.0859375 C-8.12130478 4.89241914 -12.5977567 4.85574847 -17.8359375 6.7109375 C-20.17995465 8.60386841 -20.17995465 8.60386841 -20.4609375 12.1484375 C-20.22801664 15.70159516 -20.22801664 15.70159516 -17.828125 17.21875 C-13.41513091 19.32730854 -8.81162467 20.41627415 -4.07421875 21.578125 C0.93268746 22.9251157 3.76146764 24.52606296 7.1640625 28.6484375 C8.69621138 31.71273526 8.39344798 34.2650017 8.1640625 37.6484375 C6.34308204 41.7696038 3.83014927 44.08217676 0.1640625 46.6484375 C-6.77995425 48.96310975 -15.32106148 48.74368322 -22.0234375 45.7734375 C-24.43061012 44.53072888 -26.57314178 43.15696798 -28.8359375 41.6484375 C-28.5059375 39.9984375 -28.1759375 38.3484375 -27.8359375 36.6484375 C-23.87773046 36.6484375 -23.380561 36.72551739 -20.3359375 38.6484375 C-14.12715862 41.95122777 -6.48603804 41.59596694 0.1640625 39.6484375 C0.2671875 38.3903125 0.3703125 37.1321875 0.4765625 35.8359375 C0.53457031 35.12824219 0.59257813 34.42054688 0.65234375 33.69140625 C0.33779704 31.44801314 0.33779704 31.44801314 -1.85546875 30.0390625 C-6.09141668 28.06265691 -10.4542522 26.86348412 -14.953125 25.63085938 C-20.03292679 24.15004923 -23.94227696 22.26349253 -27.1484375 17.8359375 C-28.58790834 13.255803 -28.37525572 9.79448872 -26.3359375 5.4609375 C-19.75733093 -1.93999489 -9.1633122 -4.36708819 0 0 Z " fill="#3571C8" transform="translate(566.8359375,895.3515625)"/>
<path d="M0 0 C2.31 0 4.62 0 7 0 C7.01458252 0.64026123 7.02916504 1.28052246 7.04418945 1.94018555 C7.11891382 4.85654831 7.21549293 7.77179687 7.3125 10.6875 C7.33505859 11.69490234 7.35761719 12.70230469 7.38085938 13.74023438 C7.46916793 20.95695243 7.46916793 20.95695243 11 27 C13.1572017 27.74892744 13.1572017 27.74892744 15.5 27.5625 C16.2734375 27.56378906 17.046875 27.56507813 17.84375 27.56640625 C20.80556068 26.78839439 21.42811481 25.59142701 23 23 C23.49948459 20.39837029 23.49948459 20.39837029 23.51171875 17.578125 C23.54716797 16.55332031 23.58261719 15.52851562 23.61914062 14.47265625 C23.64169922 13.40917969 23.66425781 12.34570312 23.6875 11.25 C23.72166016 10.17105469 23.75582031 9.09210937 23.79101562 7.98046875 C23.87340663 5.32041623 23.94258645 2.66068965 24 0 C26.64 0 29.28 0 32 0 C32 11.55 32 23.1 32 35 C29.36 35 26.72 35 24 35 C23.67 34.01 23.34 33.02 23 32 C22.38125 32.495 21.7625 32.99 21.125 33.5 C16.71223082 35.61812921 12.81217472 35.83154379 8 35 C4.12128668 33.00115387 1.57172133 30.05437756 0 26 C-0.22705078 23.15917969 -0.22705078 23.15917969 -0.1953125 19.921875 C-0.18886719 18.76171875 -0.18242187 17.6015625 -0.17578125 16.40625 C-0.15902344 15.1996875 -0.14226562 13.993125 -0.125 12.75 C-0.11597656 11.52796875 -0.10695313 10.3059375 -0.09765625 9.046875 C-0.07409513 6.03105218 -0.04119706 3.01562508 0 0 Z " fill="#EDEDF0" transform="translate(390,908)"/>
<path d="M0 0 C1.98 0 3.96 0 6 0 C6.33 6.27 6.66 12.54 7 19 C8.65 17.68 10.3 16.36 12 15 C15.07194908 13.46402546 17.60244293 13.7734962 21 14 C25.06015311 15.43299522 27.84032931 17.1881808 30.19067383 20.85986328 C32.09060291 25.88392914 31.39313938 31.58985377 31.25 36.875 C31.23195313 38.13570312 31.21390625 39.39640625 31.1953125 40.6953125 C31.14830729 43.79765614 31.08260676 46.8984338 31 50 C29.02 50 27.04 50 25 50 C24.99589111 49.29915283 24.99178223 48.59830566 24.98754883 47.8762207 C24.95456628 44.68746795 24.88391668 41.50061395 24.8125 38.3125 C24.80669922 37.20970703 24.80089844 36.10691406 24.79492188 34.97070312 C24.81606828 28.31323838 24.81606828 28.31323838 21.6328125 22.76953125 C19.10169661 20.83081346 19.10169661 20.83081346 16.0625 20.375 C12.01801296 21.20040552 9.33854676 22.61139379 7 26 C6.11089347 30.0997481 6.11522074 34.12942198 6.125 38.3125 C6.104375 39.43462891 6.08375 40.55675781 6.0625 41.71289062 C6.0154683 44.47600293 5.99555259 47.2365698 6 50 C4.02 50 2.04 50 0 50 C0 33.5 0 17 0 0 Z " fill="#356DC2" transform="translate(583,893)"/>
<path d="M0 0 C2.64 0 5.28 0 8 0 C8 2.97 8 5.94 8 9 C10.97 9 13.94 9 17 9 C17 10.98 17 12.96 17 15 C14.03 15 11.06 15 8 15 C8.33 21.93 8.66 28.86 9 36 C13.64045375 37.09805807 13.64045375 37.09805807 17 37 C17.33 38.98 17.66 40.96 18 43 C13.9616907 44.3461031 10.22266539 44.57269422 6 44 C3.49839182 42.12379387 2.38054348 40.76108697 1 38 C0.91550372 36.2595583 0.89276976 34.51590278 0.90234375 32.7734375 C0.90556641 31.7421875 0.90878906 30.7109375 0.91210938 29.6484375 C0.92048828 28.56820312 0.92886719 27.48796875 0.9375 26.375 C0.94201172 25.28703125 0.94652344 24.1990625 0.95117188 23.078125 C0.96298224 20.38536211 0.97945222 17.69270812 1 15 C-1.31 15 -3.62 15 -6 15 C-6 13.02 -6 11.04 -6 9 C-4.02 9 -2.04 9 0 9 C0 6.03 0 3.06 0 0 Z " fill="#EEEEF1" transform="translate(475,899)"/>
<path d="M0 0 C0.99 0.33 1.98 0.66 3 1 C2.67 2.65 2.34 4.3 2 6 C1.04287109 6.09087891 1.04287109 6.09087891 0.06640625 6.18359375 C-0.75988281 6.26738281 -1.58617187 6.35117187 -2.4375 6.4375 C-3.67306641 6.55931641 -3.67306641 6.55931641 -4.93359375 6.68359375 C-6.98662025 6.78930815 -6.98662025 6.78930815 -8 8 C-8.23075082 9.34747084 -8.41153063 10.70377565 -8.5625 12.0625 C-8.706875 13.361875 -8.85125 14.66125 -9 16 C-5.7 16 -2.4 16 1 16 C1 17.65 1 19.3 1 21 C-2.3 21 -5.6 21 -9 21 C-9 30.9 -9 40.8 -9 51 C-10.98 51 -12.96 51 -15 51 C-15.33 41.43 -15.66 31.86 -16 22 C-17.65 21.67 -19.3 21.34 -21 21 C-21 19.68 -21 18.36 -21 17 C-19.35 16.67 -17.7 16.34 -16 16 C-15.98582031 15.41992188 -15.97164062 14.83984375 -15.95703125 14.2421875 C-15.58452025 8.1410614 -14.38435075 5.27741536 -10 1 C-6.85658007 -0.57170996 -3.44228549 -0.23175783 0 0 Z " fill="#356DC5" transform="translate(660,892)"/>
<path d="M0 0 C3.51738539 1.02095083 5.4213045 2.96473571 7.96484375 5.5703125 C9.70706086 9.05474672 9.55159529 12.76918295 8.96484375 16.5703125 C7.26232656 19.64500773 5.15257867 21.97644504 1.96484375 23.5703125 C-1.28606317 23.94541714 -3.87904076 24.23572119 -6.79296875 22.55859375 C-10.90251585 19.25308847 -11.86794193 17.00357814 -12.47265625 11.8203125 C-12.40002283 7.46230713 -10.88319374 4.95650199 -7.87890625 1.8671875 C-5.21180541 -0.00882411 -3.21245906 -0.28363362 0 0 Z " fill="#100E1D" transform="translate(449.03515625,913.4296875)"/>
<path d="M0 0 C1.98 0 3.96 0 6 0 C6 2.97 6 5.94 6 9 C9.3 9 12.6 9 16 9 C16 10.65 16 12.3 16 14 C12.7 14 9.4 14 6 14 C6.11348983 17.62570152 6.24024465 21.25008101 6.375 24.875 C6.4059375 25.90753906 6.436875 26.94007813 6.46875 28.00390625 C6.50742187 28.99003906 6.54609375 29.97617187 6.5859375 30.9921875 C6.6173584 31.90339355 6.6487793 32.81459961 6.68115234 33.75341797 C6.79882511 36.19931186 6.79882511 36.19931186 9 38 C12.58343976 38.16677282 12.58343976 38.16677282 16 38 C16.33 39.65 16.66 41.3 17 43 C13.52736727 44.73631636 9.78806987 44.60190402 6 44 C3.24430553 41.81840855 1.56411253 40.12822506 0 37 C-0.08449628 35.2595583 -0.10723024 33.51590278 -0.09765625 31.7734375 C-0.09443359 30.7421875 -0.09121094 29.7109375 -0.08789062 28.6484375 C-0.07951172 27.56820312 -0.07113281 26.48796875 -0.0625 25.375 C-0.05798828 24.28703125 -0.05347656 23.1990625 -0.04882812 22.078125 C-0.03701776 19.38536211 -0.02054778 16.69270812 0 14 C-1.98 14 -3.96 14 -6 14 C-6 12.35 -6 10.7 -6 9 C-4.02 9 -2.04 9 0 9 C0 6.03 0 3.06 0 0 Z " fill="#316ECE" transform="translate(670,899)"/>
<path d="M0 0 C2.17435929 1.44728647 4.192933 2.93706925 6.1640625 4.6484375 C5.5040625 6.2984375 4.8440625 7.9484375 4.1640625 9.6484375 C1.46704416 9.10903383 -0.57483949 8.29319616 -3.0859375 7.0859375 C-8.09227479 4.90506525 -12.59816641 4.79141879 -17.7734375 6.7734375 C-20.47815073 9.23226771 -20.59778603 11.07616548 -20.8359375 14.6484375 C-21.1659375 14.6484375 -21.4959375 14.6484375 -21.8359375 14.6484375 C-22.16886335 10.40363286 -22.27479622 8.29301125 -19.8359375 4.7109375 C-19.1759375 4.0303125 -18.5159375 3.3496875 -17.8359375 2.6484375 C-21.46387748 4.51410238 -21.46387748 4.51410238 -23.8359375 7.6484375 C-24.4959375 7.6484375 -25.1559375 7.6484375 -25.8359375 7.6484375 C-25.57873076 9.23404143 -25.30454951 10.81689674 -25.0234375 12.3984375 C-24.87261719 13.28015625 -24.72179687 14.161875 -24.56640625 15.0703125 C-23.78179502 17.8395286 -22.68998391 19.4743776 -20.8359375 21.6484375 C-21.8259375 21.6484375 -22.8159375 21.6484375 -23.8359375 21.6484375 C-26.54028177 18.48049135 -27.74424902 16.29025689 -28.3359375 12.1484375 C-27.64669895 7.32376768 -26.10392107 4.44833601 -22.24609375 1.38671875 C-15.67380201 -2.57333018 -6.9532275 -3.31379713 0 0 Z " fill="#2E5EA9" transform="translate(566.8359375,895.3515625)"/>
<path d="M0 0 C0.495 1.485 0.495 1.485 1 3 C-11.22290039 15.22290039 -23.44580078 27.44580078 -35.66870117 39.66870117 C-36.43160965 40.43165497 -37.19451813 41.19460876 -37.98054504 41.98068237 C-39.5822358 43.58226421 -41.18435322 45.18341935 -42.78662109 46.78442383 C-45.15319854 49.15335062 -47.51256463 51.52931126 -49.87109375 53.90625 C-51.2538337 55.29588886 -52.63658197 56.68551954 -54.01977539 58.07470703 C-55.43222999 59.49470185 -56.84209719 60.91726878 -58.25195312 62.33984375 C-62.68036395 66.78401405 -67.06966524 71.11499498 -72 75 C-72.66 74.67 -73.32 74.34 -74 74 C-49.58 49.58 -25.16 25.16 0 0 Z " fill="#272632" transform="translate(811,534)"/>
<path d="M0 0 C0.33 1.32 0.66 2.64 1 4 C1.99 4 2.98 4 4 4 C4 4.99 4 5.98 4 7 C3.34 7.33 2.68 7.66 2 8 C1.896875 8.804375 1.79375 9.60875 1.6875 10.4375 C1.460625 11.283125 1.23375 12.12875 1 13 C-5.36144435 16.40917183 -14.01364319 16.17539311 -20.80859375 14.171875 C-24.12305409 12.71329475 -26.98483096 11.01011269 -30 9 C-29.67 7.35 -29.34 5.7 -29 4 C-25.04179296 4 -24.5446235 4.07707989 -21.5 6 C-15.29122112 9.30279027 -7.65010054 8.94752944 -1 7 C-0.67 4.69 -0.34 2.38 0 0 Z " fill="#316BBF" transform="translate(568,928)"/>
<path d="M0 0 C1.98 0 3.96 0 6 0 C6 11.55 6 23.1 6 35 C4.02 35 2.04 35 0 35 C0 23.45 0 11.9 0 0 Z " fill="#3A6BB4" transform="translate(625,908)"/>
<path d="M0 0 C6.625 -0.125 6.625 -0.125 10 1 C10 2.98 10 4.96 10 7 C9.06027344 7.25523437 9.06027344 7.25523437 8.1015625 7.515625 C6.87566406 7.87914062 6.87566406 7.87914062 5.625 8.25 C4.81289063 8.48203125 4.00078125 8.7140625 3.1640625 8.953125 C0.54214546 10.2214892 0.00617682 11.32423308 -1 14 C6.02782042 15.0390717 6.02782042 15.0390717 13 14 C13 11.69 13 9.38 13 7 C15.64 7 18.28 7 21 7 C21 7.33 21 7.66 21 8 C19.02 8 17.04 8 15 8 C15 10.97 15 13.94 15 17 C13.02 17 11.04 17 9 17 C9 18.65 9 20.3 9 22 C10.98 22 12.96 22 15 22 C15 22.33 15 22.66 15 23 C8.73 23 2.46 23 -4 23 C-4 22.67 -4 22.34 -4 22 C-0.7 22 2.6 22 6 22 C6 20.35 6 18.7 6 17 C2.7 17 -0.6 17 -4 17 C-4.1953125 10.9453125 -4.1953125 10.9453125 -4 9 C-1.60236815 6.60236815 -0.66726502 6.65719414 2.625 6.375 C3.44226563 6.30023437 4.25953125 6.22546875 5.1015625 6.1484375 C5.72804688 6.09945312 6.35453125 6.05046875 7 6 C7.33 4.68 7.66 3.36 8 2 C5.36 1.67 2.72 1.34 0 1 C0 0.67 0 0.34 0 0 Z " fill="#020C2D" transform="translate(655,891)"/>
<path d="M0 0 C2.69990662 1.79993774 4.5418865 3.083773 6 6 C6.08471364 7.81341842 6.10721083 9.62994161 6.09765625 11.4453125 C6.09443359 12.52167969 6.09121094 13.59804688 6.08789062 14.70703125 C6.07951172 15.83496094 6.07113281 16.96289062 6.0625 18.125 C6.05798828 19.26066406 6.05347656 20.39632812 6.04882812 21.56640625 C6.03701615 24.37765638 6.02054507 27.1888023 6 30 C7.98 30 9.96 30 12 30 C12 30.33 12 30.66 12 31 C9.36 31 6.72 31 4 31 C3.00179696 22.01617265 2.49195343 13.02263527 2 4 C-3.79275964 3.48264514 -3.79275964 3.48264514 -8.94921875 5.82421875 C-11.90876375 10.40728558 -11.78014889 14.46018866 -11.8125 19.8125 C-11.83763672 20.79154297 -11.86277344 21.77058594 -11.88867188 22.77929688 C-11.94738663 25.18660197 -11.9837798 27.59209562 -12 30 C-12.33 30 -12.66 30 -13 30 C-13.20416594 26.12578299 -13.32791537 22.25295408 -13.4375 18.375 C-13.52547852 16.73337891 -13.52547852 16.73337891 -13.61523438 15.05859375 C-13.78389309 7.10754004 -13.78389309 7.10754004 -11.52050781 3.90966797 C-7.85186343 0.6539153 -5.04173341 -1.096029 0 0 Z " fill="#071844" transform="translate(602,913)"/>
<path d="M0 0 C0.66 0 1.32 0 2 0 C2.33 5.94 2.66 11.88 3 18 C3.66 18 4.32 18 5 18 C4.51781006 19.07350708 4.51781006 19.07350708 4.02587891 20.16870117 C2.98226986 23.04893298 2.69284634 25.25387922 2.5859375 28.30078125 C2.54726563 29.27724609 2.50859375 30.25371094 2.46875 31.25976562 C2.4378125 32.26716797 2.406875 33.27457031 2.375 34.3125 C2.33632813 35.33923828 2.29765625 36.36597656 2.2578125 37.42382812 C2.16385103 39.94904265 2.0781846 42.47425592 2 45 C1.01 45 0.02 45 -1 45 C-1.02527124 38.75204325 -1.04283344 32.50409959 -1.05493164 26.25610352 C-1.05997298 24.12881986 -1.06680591 22.00153969 -1.07543945 19.87426758 C-1.08751379 16.82372174 -1.09323014 13.77322155 -1.09765625 10.72265625 C-1.10281754 9.76537125 -1.10797882 8.80808624 -1.11329651 7.8217926 C-1.11337204 6.94095505 -1.11344757 6.06011749 -1.11352539 5.15258789 C-1.115746 4.37315323 -1.11796661 3.59371857 -1.12025452 2.79066467 C-1 1 -1 1 0 0 Z " fill="#2E6FCD" transform="translate(586,895)"/>
<path d="M0 0 C3 1.6875 3 1.6875 5 4 C5.33 5.65 5.66 7.3 6 9 C-0.6 9 -7.2 9 -14 9 C-12.28998293 0.44991467 -8.26973315 -1.45936467 0 0 Z " fill="#1B1A24" transform="translate(519,914)"/>
<path d="M0 0 C0.99 0.33 1.98 0.66 3 1 C2.2884375 1.7115625 2.2884375 1.7115625 1.5625 2.4375 C-0.41107576 5.67416424 -0.53261087 8.34345808 -0.7890625 12.07421875 C-1 14 -1 14 -2 15 C-3.66617115 15.04063832 -5.33388095 15.042721 -7 15 C-7 16.32 -7 17.64 -7 19 C-5.7934375 18.9690625 -5.7934375 18.9690625 -4.5625 18.9375 C-2 19 -2 19 -1 20 C-0.91224395 22.14558827 -0.89304781 24.29404421 -0.90234375 26.44140625 C-0.90556641 27.74658203 -0.90878906 29.05175781 -0.91210938 30.39648438 C-0.92046599 31.7851569 -0.92893095 33.17382877 -0.9375 34.5625 C-0.94251334 35.95507656 -0.94707653 37.34765481 -0.95117188 38.74023438 C-0.96300566 42.1601987 -0.9794912 45.58007844 -1 49 C-3.82336216 46.17663784 -3.5008882 43.29631617 -3.6875 39.5 C-3.7280249 38.78328125 -3.7685498 38.0665625 -3.81030273 37.328125 C-4.07386457 31.81131064 -3.85397259 26.4654246 -3 21 C-4.65 21 -6.3 21 -8 21 C-8 18.36 -8 15.72 -8 13 C-6.35 13 -4.7 13 -3 13 C-3.03480469 12.22914063 -3.06960938 11.45828125 -3.10546875 10.6640625 C-3.13253906 9.66117188 -3.15960937 8.65828125 -3.1875 7.625 C-3.22230469 6.62726562 -3.25710938 5.62953125 -3.29296875 4.6015625 C-3.14794922 3.31378906 -3.14794922 3.31378906 -3 2 C-2.01 1.34 -1.02 0.68 0 0 Z " fill="#081D50" transform="translate(646,894)"/>
<path d="M0 0 C2.05078125 0.03255208 4.1015625 0.06510417 6.15234375 0.09765625 C6.15234375 0.42765625 6.15234375 0.75765625 6.15234375 1.09765625 C3.84234375 1.09765625 1.53234375 1.09765625 -0.84765625 1.09765625 C-0.84765625 17.59765625 -0.84765625 34.09765625 -0.84765625 51.09765625 C-1.50765625 50.76765625 -2.16765625 50.43765625 -2.84765625 50.09765625 C-3.93031823 44.16314229 -3.93028351 38.39520425 -3.76171875 32.3828125 C-3.74047943 31.48646591 -3.71924011 30.59011932 -3.69735718 29.66661072 C-3.65139773 27.78832811 -3.60249819 25.91011532 -3.55078125 24.03198242 C-3.47223067 21.14451236 -3.4054142 18.25693161 -3.33984375 15.36914062 C-3.29366214 13.54034694 -3.24681143 11.71157001 -3.19921875 9.8828125 C-3.1793692 9.01624527 -3.15951965 8.14967804 -3.1390686 7.2568512 C-2.9320487 0.15497086 -2.9320487 0.15497086 0 0 Z " fill="#000C34" transform="translate(583.84765625,890.90234375)"/>
<path d="M0 0 C3.8743168 1.46956844 5.19415703 3.31715254 7 7 C7.34057617 10.04614258 7.34057617 10.04614258 7.29296875 13.39453125 C7.28330078 14.59658203 7.27363281 15.79863281 7.26367188 17.03710938 C7.23853516 18.28298828 7.21339844 19.52886719 7.1875 20.8125 C7.17396484 22.07771484 7.16042969 23.34292969 7.14648438 24.64648438 C7.11118318 27.76475643 7.06186819 30.88216042 7 34 C5.02 34 3.04 34 1 34 C0.97494385 33.2886792 0.9498877 32.5773584 0.92407227 31.84448242 C0.80811561 28.62530483 0.68538755 25.40642015 0.5625 22.1875 C0.52318359 21.06794922 0.48386719 19.94839844 0.44335938 18.79492188 C0.38051758 17.18520508 0.38051758 17.18520508 0.31640625 15.54296875 C0.27974854 14.55321045 0.24309082 13.56345215 0.20532227 12.54370117 C0.09209669 9.8781649 0.09209669 9.8781649 -1 7 C-0.01 7.33 0.98 7.66 2 8 C2 15.92 2 23.84 2 32 C2.99 32 3.98 32 5 32 C4.94805836 27.93646256 4.85296244 23.87503968 4.75 19.8125 C4.73582031 18.66201172 4.72164062 17.51152344 4.70703125 16.32617188 C4.67480469 15.21435547 4.64257812 14.10253906 4.609375 12.95703125 C4.58842773 11.93585205 4.56748047 10.91467285 4.54589844 9.86254883 C3.87383479 6.33842258 2.32600709 4.67074009 0 2 C0 1.34 0 0.68 0 0 Z " fill="#3968B2" transform="translate(607,909)"/>
<path d="M0 0 C13.97387825 -0.68912276 13.97387825 -0.68912276 17.875 2 C18.57625 2.66 19.2775 3.32 20 4 C19.34 5.65 18.68 7.3 18 9 C14.08406554 8.21681311 10.63593365 6.60820142 7 5 C7 4.34 7 3.68 7 3 C4.69 3 2.38 3 0 3 C0 2.01 0 1.02 0 0 Z " fill="#2E6FC9" transform="translate(553,896)"/>
<path d="M0 0 C0.99 0 1.98 0 3 0 C3 10.23 3 20.46 3 31 C2.01 31 1.02 31 0 31 C0 20.77 0 10.54 0 0 Z " fill="#2C73D0" transform="translate(626,910)"/>
<path d="M0 0 C3.63 0 7.26 0 11 0 C8.53721199 2.46278801 6.29323018 2.99771255 3 4 C2.98018066 4.74685059 2.96036133 5.49370117 2.93994141 6.26318359 C2.84491789 9.63415605 2.73514741 13.00448929 2.625 16.375 C2.57859375 18.1384375 2.57859375 18.1384375 2.53125 19.9375 C2.47324219 21.61972656 2.47324219 21.61972656 2.4140625 23.3359375 C2.3826416 24.37282715 2.3512207 25.4097168 2.31884766 26.47802734 C2 29 2 29 0 31 C-3.625 30.625 -3.625 30.625 -7 30 C-7 29.67 -7 29.34 -7 29 C-4.69 29 -2.38 29 0 29 C0 19.43 0 9.86 0 0 Z " fill="#010B34" transform="translate(651,914)"/>
<path d="M0 0 C0.33 0 0.66 0 1 0 C1.66 6.27 2.32 12.54 3 19 C5.97 19 8.94 19 12 19 C12 19.99 12 20.98 12 22 C10.5629191 22.05422947 9.12524538 22.09289723 7.6875 22.125 C6.48673828 22.15980469 6.48673828 22.15980469 5.26171875 22.1953125 C3 22 3 22 0 20 C-1.51999043 16.32232202 -1.14737339 12.23157274 -1.125 8.3125 C-1.12886719 7.62349609 -1.13273438 6.93449219 -1.13671875 6.22460938 C-1.12669335 1.12669335 -1.12669335 1.12669335 0 0 Z " fill="#2E71D9" transform="translate(673,919)"/>
<path d="M0 0 C0.66 0 1.32 0 2 0 C3.03375527 3.1012658 3.12909814 5.26502784 3.1328125 8.515625 C3.13410156 9.60230469 3.13539063 10.68898438 3.13671875 11.80859375 C3.13285156 12.94425781 3.12898437 14.07992187 3.125 15.25 C3.12886719 16.37019531 3.13273438 17.49039063 3.13671875 18.64453125 C3.13015856 24.20100967 2.99617159 29.5289624 2 35 C1.34 35 0.68 35 0 35 C0 23.45 0 11.9 0 0 Z " fill="#000D35" transform="translate(631,908)"/>
<path d="M0 0 C0 0.33 0 0.66 0 1 C-2.64 1.33 -5.28 1.66 -8 2 C-8 2.66 -8 3.32 -8 4 C-8.99 4.66 -9.98 5.32 -11 6 C-11.2502157 9.08365871 -11.2502157 9.08365871 -11 12 C-7.7 12.33 -4.4 12.66 -1 13 C-0.67 13.99 -0.34 14.98 0 16 C-5.69113347 15.60750804 -9.68792783 15.09646856 -14 11 C-14.75 7.5 -14.75 7.5 -14 4 C-9.52530657 -0.3628261 -5.89610531 -0.40662795 0 0 Z " fill="#071845" transform="translate(560,900)"/>
<path d="M0 0 C0.66 0.33 1.32 0.66 2 1 C-4.55666711 8.8098185 -11.62744309 17.09803365 -20 23 C-20.66 22.67 -21.32 22.34 -22 22 C-14.74 14.74 -7.48 7.48 0 0 Z " fill="#2F2F39" transform="translate(834,511)"/>
<path d="M0 0 C4.48640898 6.72961347 3.39105803 17.15583592 3 25 C2.4921875 27.3515625 2.4921875 27.3515625 2 29 C1.34 29 0.68 29 0 29 C0 19.43 0 9.86 0 0 Z " fill="#020D33" transform="translate(614,913)"/>
<path d="M0 0 C0.99 0.66 1.98 1.32 3 2 C2.04287109 2.07347656 2.04287109 2.07347656 1.06640625 2.1484375 C0.24011719 2.22320313 -0.58617187 2.29796875 -1.4375 2.375 C-2.67306641 2.47941406 -2.67306641 2.47941406 -3.93359375 2.5859375 C-4.95646484 2.79089844 -4.95646484 2.79089844 -6 3 C-6.33 3.66 -6.66 4.32 -7 5 C-5.35 5 -3.7 5 -2 5 C-2 5.33 -2 5.66 -2 6 C-3.2375 6.268125 -4.475 6.53625 -5.75 6.8125 C-9.10283779 7.63881995 -11.41095936 8.62671274 -14 11 C-14.3125 8.25 -14.3125 8.25 -14 5 C-9.39742627 0.51854664 -6.36058865 -0.33476782 0 0 Z " fill="#386CBF" transform="translate(604,907)"/>
<path d="M0 0 C0.33 0 0.66 0 1 0 C1.36768802 5.51532033 1.36768802 5.51532033 -0.375 7.8125 C-3.63586389 10.195439 -5.93805375 10.13469563 -9.9375 10.125 C-10.99839844 10.12757813 -12.05929687 10.13015625 -13.15234375 10.1328125 C-16 10 -16 10 -19 9 C-19.33 8.01 -19.66 7.02 -20 6 C-18.33388095 5.957279 -16.66617115 5.95936168 -15 6 C-14.67 6.33 -14.34 6.66 -14 7 C-12.48530552 7.23192865 -10.96245438 7.41215238 -9.4375 7.5625 C-8.61121094 7.64628906 -7.78492188 7.73007812 -6.93359375 7.81640625 C-6.29550781 7.87699219 -5.65742187 7.93757812 -5 8 C-5 7.34 -5 6.68 -5 6 C-3.35 5.67 -1.7 5.34 0 5 C0 3.35 0 1.7 0 0 Z " fill="#03103A" transform="translate(567,927)"/>
<path d="M0 0 C4.41345479 1.34855563 6.74559607 2.92473136 9 7 C9.18142838 10.12826503 8.93632298 13.00600915 8 16 C7.02956306 17.02871383 6.03030157 18.03124891 5 19 C4.67 19.99 4.34 20.98 4 22 C2.68 21.67 1.36 21.34 0 21 C0.639375 20.401875 1.27875 19.80375 1.9375 19.1875 C4.66441658 16.29531575 4.97202839 14.51281294 5.1875 10.5625 C4.9272497 5.61774434 3.61387379 3.28533981 0 0 Z " fill="#04123A" transform="translate(569,919)"/>
<path d="M0 0 C0 6.27 0 12.54 0 19 C-0.99 18.67 -1.98 18.34 -3 18 C-3 12.39 -3 6.78 -3 1 C-1 0 -1 0 0 0 Z " fill="#2F6ECE" transform="translate(649,921)"/>
<path d="M0 0 C2.31 0 4.62 0 7 0 C7.33 7.92 7.66 15.84 8 24 C4.63269425 20.63269425 4.63269425 20.63269425 4.62890625 16.875 C4.61150391 16.08609375 4.59410156 15.2971875 4.57617188 14.484375 C4.56705738 12.82814189 4.56184896 11.17188268 4.56054688 9.515625 C4.59893946 4.71880065 4.59893946 4.71880065 1.96484375 0.9375 C1.31644531 0.628125 0.66804687 0.31875 0 0 Z " fill="#010B34" transform="translate(663,914)"/>
<path d="M0 0 C2.5625 0.1875 2.5625 0.1875 4.5625 2.1875 C4.1875 4.8125 4.1875 4.8125 3.5625 7.1875 C1.1875 7.8125 1.1875 7.8125 -1.4375 8.1875 C-3.4375 6.1875 -3.4375 6.1875 -3.625 3.625 C-3.37291261 0.34786389 -3.27713611 0.25208739 0 0 Z " fill="#366EBB" transform="translate(627.4375,892.8125)"/>
<path d="M0 0 C0.66 0.33 1.32 0.66 2 1 C0.38405168 3.04119788 -1.2856382 5.04072937 -3 7 C-3.66 7 -4.32 7 -5 7 C-4.74279326 8.58560393 -4.46861201 10.16845924 -4.1875 11.75 C-4.03667969 12.63171875 -3.88585937 13.5134375 -3.73046875 14.421875 C-2.94585752 17.1910911 -1.85404641 18.8259401 0 21 C-0.99 21 -1.98 21 -3 21 C-5.70434427 17.83205385 -6.90831152 15.64181939 -7.5 11.5 C-6.907297 7.35107899 -5.6294764 5.23049958 -3 2 C-2.01 1.34 -1.02 0.68 0 0 Z " fill="#3863AB" transform="translate(546,896)"/>
<path d="M0 0 C1.09441406 0.08765625 2.18882812 0.1753125 3.31640625 0.265625 C7.97835597 0.98913159 11.32054716 2.14089671 14.4375 5.75 C14.1075 6.41 13.7775 7.07 13.4375 7.75 C13.01082031 7.3890625 12.58414063 7.028125 12.14453125 6.65625 C5.8574984 1.98958644 0.05436861 2.06731011 -7.5625 2.75 C-9.23504545 3.05245761 -10.90476116 3.37477896 -12.5625 3.75 C-12.5625 3.09 -12.5625 2.43 -12.5625 1.75 C-8.10194349 0.00076215 -4.76244097 -0.42732646 0 0 Z " fill="#010E33" transform="translate(558.5625,892.25)"/>
<path d="M0 0 C0.680625 0.16242187 1.36125 0.32484375 2.0625 0.4921875 C5.42276997 1.07308523 8.59050215 1.13234806 12 1.125 C13.19625 1.12757813 14.3925 1.13015625 15.625 1.1328125 C18.55327693 1.01757938 21.15786976 0.67823563 24 0 C23.67 0.99 23.34 1.98 23 3 C14.58056273 5.32878052 8.22194437 4.74064812 0 2 C0 1.34 0 0.68 0 0 Z " fill="#010C30" transform="translate(545,941)"/>
<path d="M0 0 C6.625 -0.125 6.625 -0.125 10 1 C10.04254356 2.99954746 10.04080783 5.00041636 10 7 C8.44655141 8.55344859 6.77483728 8.30519274 4.625 8.5 C1.82678686 8.75521162 -0.30810511 9.1027017 -3 10 C-2.67 12.31 -2.34 14.62 -2 17 C-2.66 17 -3.32 17 -4 17 C-4.1953125 10.9453125 -4.1953125 10.9453125 -4 9 C-1.60236815 6.60236815 -0.66726502 6.65719414 2.625 6.375 C3.44226563 6.30023437 4.25953125 6.22546875 5.1015625 6.1484375 C5.72804688 6.09945312 6.35453125 6.05046875 7 6 C7.33 4.68 7.66 3.36 8 2 C5.36 1.67 2.72 1.34 0 1 C0 0.67 0 0.34 0 0 Z " fill="#071B4D" transform="translate(655,891)"/>
<path d="M0 0 C2.48046875 1.11328125 2.48046875 1.11328125 5 3 C5.48828125 5.91796875 5.48828125 5.91796875 5.3125 9.1875 C5.26738281 10.27417969 5.22226562 11.36085938 5.17578125 12.48046875 C5.11777344 13.31191406 5.05976562 14.14335938 5 15 C3.02 15.99 3.02 15.99 1 17 C1.33 15.68 1.66 14.36 2 13 C2.66 13 3.32 13 4 13 C4 12.01 4 11.02 4 10 C3.34 10 2.68 10 2 10 C0.68373308 6.38026598 0 3.90432869 0 0 Z " fill="#3375D1" transform="translate(568,922)"/>
<path d="M0 0 C0.66 0 1.32 0 2 0 C2 0.99 2 1.98 2 3 C7.94 3.99 7.94 3.99 14 5 C14 4.01 14 3.02 14 2 C13.34 1.67 12.68 1.34 12 1 C13.32 1.33 14.64 1.66 16 2 C16 3.32 16 4.64 16 6 C12.52683143 7.73658429 8.78858864 7.60094854 5 7 C1.9375 4.625 1.9375 4.625 0 2 C0 1.34 0 0.68 0 0 Z " fill="#3A68BB" transform="translate(671,936)"/>
<path d="M0 0 C3.16115776 1.36983503 3.9927092 1.9890638 6 5 C6.22705078 7.8190918 6.22705078 7.8190918 6.1953125 11.19921875 C6.18886719 12.40771484 6.18242188 13.61621094 6.17578125 14.86132812 C6.15902344 16.12396484 6.14226563 17.38660156 6.125 18.6875 C6.11597656 19.96173828 6.10695313 21.23597656 6.09765625 22.54882812 C6.07405641 25.69940627 6.04113194 28.84960983 6 32 C5.67 32 5.34 32 5 32 C4.9906543 31.26885986 4.98130859 30.53771973 4.97167969 29.78442383 C4.91787336 26.45977282 4.83424496 23.13651322 4.75 19.8125 C4.73582031 18.66201172 4.72164062 17.51152344 4.70703125 16.32617188 C4.67480469 15.21435547 4.64257812 14.10253906 4.609375 12.95703125 C4.58842773 11.93585205 4.56748047 10.91467285 4.54589844 9.86254883 C3.87383479 6.33842258 2.32600709 4.67074009 0 2 C0 1.34 0 0.68 0 0 Z " fill="#3572CC" transform="translate(607,909)"/>
<path d="M0 0 C1.32 0.33 2.64 0.66 4 1 C2.7934375 2.175625 2.7934375 2.175625 1.5625 3.375 C-1.48251014 6.40164132 -1.48251014 6.40164132 -2.09765625 10.3828125 C-2.08605469 11.28773438 -2.07445312 12.19265625 -2.0625 13.125 C-2.04896484 14.49011719 -2.04896484 14.49011719 -2.03515625 15.8828125 C-2.02355469 16.58148437 -2.01195312 17.28015625 -2 18 C-2.66 18.33 -3.32 18.66 -4 19 C-6.33052725 9.3865751 -6.33052725 9.3865751 -3.8828125 4.99609375 C-2.65590201 3.28049857 -1.33378624 1.63388814 0 0 Z " fill="#010A2D" transform="translate(542,896)"/>
<path d="M0 0 C2.97 0 5.94 0 9 0 C9 0.33 9 0.66 9 1 C6.36 1 3.72 1 1 1 C1.33 7.27 1.66 13.54 2 20 C4.31 20.33 6.62 20.66 9 21 C9 21.33 9 21.66 9 22 C2.84765625 22.87890625 2.84765625 22.87890625 1 23 C0 22 0 22 -0.11352539 19.86694336 C-0.10828857 18.95050049 -0.10305176 18.03405762 -0.09765625 17.08984375 C-0.09443359 16.10048828 -0.09121094 15.11113281 -0.08789062 14.09179688 C-0.07951172 13.05087891 -0.07113281 12.00996094 -0.0625 10.9375 C-0.05798828 9.89271484 -0.05347656 8.84792969 -0.04882812 7.77148438 C-0.03699913 5.1809334 -0.02051689 2.59049441 0 0 Z " fill="#000B38" transform="translate(677,914)"/>
<path d="M0 0 C-2.33953376 1.16976688 -4.63628641 2.25970874 -7.0625 3.25 C-10.59502349 5.35448208 -11.49626684 7.24066711 -13 11 C-13.66 11 -14.32 11 -15 11 C-14.80839429 6.88047733 -14.22298348 5.25017659 -11.4375 2.125 C-7.70813425 -0.71512526 -4.54499343 -0.39180978 0 0 Z " fill="#3968B7" transform="translate(660,892)"/>
<path d="M0 0 C3.465 1.98 3.465 1.98 7 4 C6.34 5.65 5.68 7.3 5 9 C1.85262818 8.30058404 -1.02588876 7.23921302 -4 6 C-0.98968256 5.06576355 -0.13349732 4.95550089 3 6 C3 5.01 3 4.02 3 3 C2.01 2.67 1.02 2.34 0 2 C0 1.34 0 0.68 0 0 Z " fill="#3966AD" transform="translate(566,896)"/>
<path d="M0 0 C3.3 0 6.6 0 10 0 C10 1.65 10 3.3 10 5 C6.7 5 3.4 5 0 5 C0 4.67 0 4.34 0 4 C3.465 3.505 3.465 3.505 7 3 C4.69 2.34 2.38 1.68 0 1 C0 0.67 0 0.34 0 0 Z " fill="#3E6EC0" transform="translate(676,908)"/>
<path d="M0 0 C0.99 0 1.98 0 3 0 C3 1.65 3 3.3 3 5 C4.98 5 6.96 5 9 5 C9 5.33 9 5.66 9 6 C2.73 6 -3.54 6 -10 6 C-10 5.67 -10 5.34 -10 5 C-6.7 5 -3.4 5 0 5 C0 3.35 0 1.7 0 0 Z " fill="#07235E" transform="translate(661,908)"/>
<path d="M0 0 C2.31 0 4.62 0 7 0 C7 5.61 7 11.22 7 17 C7.99 17.33 8.98 17.66 10 18 C8.68 18.99 7.36 19.98 6 21 C6 14.4 6 7.8 6 1 C4.02 1 2.04 1 0 1 C0 0.67 0 0.34 0 0 Z " fill="#0A2964" transform="translate(583,892)"/>
<path d="M0 0 C0.54140625 0.32742188 1.0828125 0.65484375 1.640625 0.9921875 C4.50719067 2.21664767 6.6452987 2.19892146 9.75 2.125 C10.73484375 2.10695313 11.7196875 2.08890625 12.734375 2.0703125 C13.48203125 2.04710937 14.2296875 2.02390625 15 2 C14.67 2.99 14.34 3.98 14 5 C12.41753293 5.08153933 10.83383727 5.13943557 9.25 5.1875 C7.92742188 5.23970703 7.92742188 5.23970703 6.578125 5.29296875 C3.52389051 4.94589665 2.19435701 4.11745198 0 2 C0 1.34 0 0.68 0 0 Z " fill="#041242" transform="translate(672,940)"/>
<path d="M0 0 C2.64 0 5.28 0 8 0 C8 0.33 8 0.66 8 1 C6.02 1 4.04 1 2 1 C2 3.97 2 6.94 2 10 C0.02 10 -1.96 10 -4 10 C-3.01 9.34 -2.02 8.68 -1 8 C-0.42251197 6.03638136 -0.42251197 6.03638136 -0.3125 3.875 C-0.209375 2.59625 -0.10625 1.3175 0 0 Z " fill="#031340" transform="translate(668,898)"/>
<path d="M0 0 C1.98 0 3.96 0 6 0 C6 2.97 6 5.94 6 9 C5.67 9 5.34 9 5 9 C5 6.69 5 4.38 5 2 C4.01 2 3.02 2 2 2 C1.67 4.31 1.34 6.62 1 9 C0.67 9 0.34 9 0 9 C0 6.03 0 3.06 0 0 Z " fill="#4070BE" transform="translate(670,899)"/>
<path d="M0 0 C3.37503669 1.1858237 5.64722731 2.27573689 8 5 C5.33333333 4.33333333 2.66666667 3.66666667 0 3 C0.99 4.65 1.98 6.3 3 8 C0.525 7.01 0.525 7.01 -2 6 C-1.125 1.125 -1.125 1.125 0 0 Z " fill="#3869B0" transform="translate(540,931)"/>
<path d="M0 0 C0.99 0.33 1.98 0.66 3 1 C1.68 2.32 0.36 3.64 -1 5 C2.63 5.33 6.26 5.66 10 6 C10 6.33 10 6.66 10 7 C5.71 7 1.42 7 -3 7 C-2 2 -2 2 0 0 Z " fill="#080712" transform="translate(509,915)"/>
<path d="M0 0 C3.34373475 0.55728913 6.03312999 1.35173889 9 3 C8.34 3.66 7.68 4.32 7 5 C4.5 4.875 4.5 4.875 2 4 C0.6875 1.9375 0.6875 1.9375 0 0 Z " fill="#296FCD" transform="translate(540,934)"/>
<path d="M0 0 C3 1 3 1 4.1875 2.625 C5.29729356 5.86901194 5.24757934 8.59578407 5 12 C4.01 13.485 4.01 13.485 3 15 C2.95101562 14.25234375 2.90203125 13.5046875 2.8515625 12.734375 C2.77679687 11.74953125 2.70203125 10.7646875 2.625 9.75 C2.55539062 8.77546875 2.48578125 7.8009375 2.4140625 6.796875 C2.01534751 4.10366811 1.36492937 2.33036721 0 0 Z " fill="#3D6BB3" transform="translate(570,921)"/>
<path d="M0 0 C1.98 0 3.96 0 6 0 C5.34 1.32 4.68 2.64 4 4 C4.66 4.33 5.32 4.66 6 5 C4.02 5 2.04 5 0 5 C0 3.35 0 1.7 0 0 Z " fill="#376ABE" transform="translate(664,908)"/>
<path d="M0 0 C0.33 0.66 0.66 1.32 1 2 C0.41992188 1.97679687 -0.16015625 1.95359375 -0.7578125 1.9296875 C-5.61411166 1.81749577 -9.42932395 2.12485085 -14 4 C-14 3.01 -14 2.02 -14 1 C-9.42093536 -1.51109996 -4.95586469 -1.26968434 0 0 Z " fill="#020D31" transform="translate(663,890)"/>
<path d="M0 0 C0.66 0.33 1.32 0.66 2 1 C1 3 1 3 -0.9375 3.6875 C-5.36031249 4.1388074 -9.60342968 3.55490693 -14 3 C-14 2.67 -14 2.34 -14 2 C-13.24074219 1.93941406 -12.48148438 1.87882813 -11.69921875 1.81640625 C-10.70535156 1.73261719 -9.71148438 1.64882813 -8.6875 1.5625 C-7.70136719 1.48128906 -6.71523438 1.40007813 -5.69921875 1.31640625 C-2.90624401 1.08187441 -2.90624401 1.08187441 0 0 Z " fill="#031543" transform="translate(567,941)"/>
<path d="M0 0 C2.125 0.375 2.125 0.375 4 1 C1.66666667 3.33333333 -0.66666667 5.66666667 -3 8 C-2.25 2.25 -2.25 2.25 0 0 Z " fill="#031038" transform="translate(542,896)"/>
<path d="M0 0 C2.64 0.33 5.28 0.66 8 1 C7.67 1.66 7.34 2.32 7 3 C6.236875 2.9175 5.47375 2.835 4.6875 2.75 C1.85416667 2.70833333 1.85416667 2.70833333 0.1875 5 C-0.204375 5.66 -0.59625 6.32 -1 7 C-0.67 4.69 -0.34 2.38 0 0 Z " fill="#051641" transform="translate(623,891)"/>
<path d="M0 0 C0.99 0 1.98 0 3 0 C2.67 1.65 2.34 3.3 2 5 C-0.64 4.67 -3.28 4.34 -6 4 C-6 3.67 -6 3.34 -6 3 C-3.69 3 -1.38 3 1 3 C0.67 2.01 0.34 1.02 0 0 Z " fill="#3C6DB9" transform="translate(660,893)"/>
<path d="M0 0 C1.65 0 3.3 0 5 0 C5 1.32 5 2.64 5 4 C3.35 4 1.7 4 0 4 C0 2.68 0 1.36 0 0 Z " fill="#3D73CB" transform="translate(639,909)"/>
<path d="M0 0 C2.125 0.375 2.125 0.375 4 1 C2 3 0 5 -2 7 C-2.125 4.625 -2.125 4.625 -2 2 C-1.34 1.34 -0.68 0.68 0 0 Z " fill="#06143A" transform="translate(539,929)"/>
<path d="M0 0 C2.99324263 1.0975223 3.84610901 1.67682892 5.25 4.625 C5.4975 5.40875 5.745 6.1925 6 7 C5.34 7 4.68 7 4 7 C0 2.52941176 0 2.52941176 0 0 Z " fill="#3768B5" transform="translate(607,909)"/>
</svg>
